<mxfile host="app.diagrams.net" agent="Mozilla/5.0 (Windows NT 10.0; Win64; x64) AppleWebKit/537.36 (KHTML, like Gecko) Chrome/134.0.0.0 Safari/537.36" version="26.1.0">
  <diagram name="페이지-1" id="5okre0JoYVMYLcafYqmi">
    <mxGraphModel dx="2474" dy="1193" grid="0" gridSize="10" guides="1" tooltips="1" connect="1" arrows="1" fold="1" page="0" pageScale="1" pageWidth="827" pageHeight="1169" math="0" shadow="0">
      <root>
        <mxCell id="0" />
        <mxCell id="1" parent="0" />
        <mxCell id="Wm4q_M4GhdcZWvchF4W8-1" value="교전통제소" style="rounded=0;whiteSpace=wrap;html=1;verticalAlign=top;" vertex="1" parent="1">
          <mxGeometry x="260" y="500" width="280" height="170" as="geometry" />
        </mxCell>
        <mxCell id="Wm4q_M4GhdcZWvchF4W8-2" value="통제소 PC" style="rounded=0;whiteSpace=wrap;html=1;verticalAlign=top;align=left;" vertex="1" parent="1">
          <mxGeometry x="410" y="600" width="120" height="60" as="geometry" />
        </mxCell>
        <mxCell id="Wm4q_M4GhdcZWvchF4W8-3" value="Embedded board&lt;div&gt;(Arduino)&lt;/div&gt;" style="rounded=0;whiteSpace=wrap;html=1;verticalAlign=top;align=left;" vertex="1" parent="1">
          <mxGeometry x="310" y="530" width="100" height="60" as="geometry" />
        </mxCell>
        <mxCell id="Wm4q_M4GhdcZWvchF4W8-4" value="RF" style="ellipse;whiteSpace=wrap;html=1;aspect=fixed;" vertex="1" parent="1">
          <mxGeometry x="490" y="550" width="40" height="40" as="geometry" />
        </mxCell>
        <mxCell id="Wm4q_M4GhdcZWvchF4W8-5" value="" style="endArrow=none;html=1;rounded=0;exitX=0;exitY=0.5;exitDx=0;exitDy=0;fillColor=#dae8fc;strokeColor=#6c8ebf;strokeWidth=3;entryX=1;entryY=0.667;entryDx=0;entryDy=0;entryPerimeter=0;" edge="1" parent="1" source="Wm4q_M4GhdcZWvchF4W8-4" target="Wm4q_M4GhdcZWvchF4W8-3">
          <mxGeometry width="50" height="50" relative="1" as="geometry">
            <mxPoint x="400" y="670" as="sourcePoint" />
            <mxPoint x="470" y="640" as="targetPoint" />
          </mxGeometry>
        </mxCell>
        <mxCell id="Wm4q_M4GhdcZWvchF4W8-47" value="Serial" style="edgeLabel;html=1;align=center;verticalAlign=middle;resizable=0;points=[];" vertex="1" connectable="0" parent="Wm4q_M4GhdcZWvchF4W8-5">
          <mxGeometry x="-0.0238" y="1" relative="1" as="geometry">
            <mxPoint x="-1" as="offset" />
          </mxGeometry>
        </mxCell>
        <mxCell id="Wm4q_M4GhdcZWvchF4W8-6" value="발사대" style="rounded=0;whiteSpace=wrap;html=1;verticalAlign=top;" vertex="1" parent="1">
          <mxGeometry x="-80" y="570" width="280" height="100" as="geometry" />
        </mxCell>
        <mxCell id="Wm4q_M4GhdcZWvchF4W8-7" value="Embedded board(STM)" style="rounded=0;whiteSpace=wrap;html=1;verticalAlign=top;align=left;" vertex="1" parent="1">
          <mxGeometry x="30" y="600" width="160" height="60" as="geometry" />
        </mxCell>
        <mxCell id="Wm4q_M4GhdcZWvchF4W8-8" value="RF" style="ellipse;whiteSpace=wrap;html=1;aspect=fixed;" vertex="1" parent="1">
          <mxGeometry x="-70" y="620" width="40" height="40" as="geometry" />
        </mxCell>
        <mxCell id="Wm4q_M4GhdcZWvchF4W8-10" value="Serial" style="endArrow=none;html=1;rounded=0;exitX=1;exitY=0.5;exitDx=0;exitDy=0;entryX=0.393;entryY=0.412;entryDx=0;entryDy=0;entryPerimeter=0;fillColor=#dae8fc;strokeColor=#6c8ebf;strokeWidth=3;" edge="1" parent="1" source="Wm4q_M4GhdcZWvchF4W8-8">
          <mxGeometry width="50" height="50" relative="1" as="geometry">
            <mxPoint x="-30" y="620" as="sourcePoint" />
            <mxPoint x="30.04000000000019" y="640.04" as="targetPoint" />
          </mxGeometry>
        </mxCell>
        <mxCell id="Wm4q_M4GhdcZWvchF4W8-17" value="미사일" style="rounded=0;whiteSpace=wrap;html=1;verticalAlign=top;" vertex="1" parent="1">
          <mxGeometry x="-80" y="80" width="620" height="170" as="geometry" />
        </mxCell>
        <mxCell id="Wm4q_M4GhdcZWvchF4W8-18" value="Embedded board(Arduino)" style="rounded=0;whiteSpace=wrap;html=1;verticalAlign=top;align=left;" vertex="1" parent="1">
          <mxGeometry x="-70" y="110" width="160" height="60" as="geometry" />
        </mxCell>
        <mxCell id="Wm4q_M4GhdcZWvchF4W8-19" value="RF" style="ellipse;whiteSpace=wrap;html=1;aspect=fixed;" vertex="1" parent="1">
          <mxGeometry x="150" y="130" width="40" height="40" as="geometry" />
        </mxCell>
        <mxCell id="Wm4q_M4GhdcZWvchF4W8-20" value="Serial" style="endArrow=none;html=1;rounded=0;exitX=0;exitY=0.5;exitDx=0;exitDy=0;entryX=0.607;entryY=0.824;entryDx=0;entryDy=0;entryPerimeter=0;fillColor=#dae8fc;strokeColor=#6c8ebf;strokeWidth=3;" edge="1" parent="1" source="Wm4q_M4GhdcZWvchF4W8-19">
          <mxGeometry width="50" height="50" relative="1" as="geometry">
            <mxPoint x="60" y="180" as="sourcePoint" />
            <mxPoint x="89.96000000000004" y="150.07999999999993" as="targetPoint" />
          </mxGeometry>
        </mxCell>
        <mxCell id="Wm4q_M4GhdcZWvchF4W8-21" value="RF" style="endArrow=none;html=1;rounded=0;entryX=1;entryY=1;entryDx=0;entryDy=0;exitX=0;exitY=0;exitDx=0;exitDy=0;fillColor=#e1d5e7;strokeColor=#9673a6;strokeWidth=3;" edge="1" parent="1" source="Wm4q_M4GhdcZWvchF4W8-4" target="Wm4q_M4GhdcZWvchF4W8-19">
          <mxGeometry width="50" height="50" relative="1" as="geometry">
            <mxPoint x="-120" y="570" as="sourcePoint" />
            <mxPoint x="-70" y="520" as="targetPoint" />
            <Array as="points">
              <mxPoint x="320" y="330" />
              <mxPoint x="350" y="390" />
            </Array>
          </mxGeometry>
        </mxCell>
        <mxCell id="Wm4q_M4GhdcZWvchF4W8-22" value="발사관" style="rounded=0;whiteSpace=wrap;html=1;verticalAlign=top;" vertex="1" parent="1">
          <mxGeometry x="-230" y="590" width="80" height="80" as="geometry" />
        </mxCell>
        <mxCell id="Wm4q_M4GhdcZWvchF4W8-23" value="RF" style="ellipse;whiteSpace=wrap;html=1;aspect=fixed;" vertex="1" parent="1">
          <mxGeometry x="-210" y="620" width="40" height="40" as="geometry" />
        </mxCell>
        <mxCell id="Wm4q_M4GhdcZWvchF4W8-16" value="RF" style="endArrow=none;html=1;rounded=0;exitX=1;exitY=0.5;exitDx=0;exitDy=0;entryX=0;entryY=0.5;entryDx=0;entryDy=0;fillColor=#e1d5e7;strokeColor=#9673a6;strokeWidth=3;" edge="1" parent="1" source="Wm4q_M4GhdcZWvchF4W8-23" target="Wm4q_M4GhdcZWvchF4W8-8">
          <mxGeometry width="50" height="50" relative="1" as="geometry">
            <mxPoint x="-150.0000000000041" y="570" as="sourcePoint" />
            <mxPoint x="-40" y="510" as="targetPoint" />
            <Array as="points">
              <mxPoint x="-100" y="630" />
              <mxPoint x="-130" y="650" />
            </Array>
          </mxGeometry>
        </mxCell>
        <mxCell id="Wm4q_M4GhdcZWvchF4W8-24" value="?" style="endArrow=none;html=1;rounded=0;entryX=0;entryY=0.5;entryDx=0;entryDy=0;exitX=0;exitY=0.5;exitDx=0;exitDy=0;strokeWidth=3;" edge="1" parent="1" source="Wm4q_M4GhdcZWvchF4W8-23" target="Wm4q_M4GhdcZWvchF4W8-18">
          <mxGeometry width="50" height="50" relative="1" as="geometry">
            <mxPoint x="-10" y="430" as="sourcePoint" />
            <mxPoint x="40" y="380" as="targetPoint" />
            <Array as="points">
              <mxPoint x="-330" y="640" />
              <mxPoint x="-330" y="140" />
            </Array>
          </mxGeometry>
        </mxCell>
        <mxCell id="Wm4q_M4GhdcZWvchF4W8-25" value="Servo&lt;div&gt;Motor&lt;/div&gt;" style="ellipse;whiteSpace=wrap;html=1;aspect=fixed;" vertex="1" parent="1">
          <mxGeometry x="50" y="200" width="40" height="40" as="geometry" />
        </mxCell>
        <mxCell id="Wm4q_M4GhdcZWvchF4W8-27" value="PWM" style="endArrow=none;html=1;rounded=0;exitX=0.5;exitY=0;exitDx=0;exitDy=0;entryX=0.875;entryY=1;entryDx=0;entryDy=0;entryPerimeter=0;fillColor=#ffe6cc;strokeColor=#d79b00;strokeWidth=3;" edge="1" parent="1" source="Wm4q_M4GhdcZWvchF4W8-25" target="Wm4q_M4GhdcZWvchF4W8-18">
          <mxGeometry width="50" height="50" relative="1" as="geometry">
            <mxPoint x="160" y="160" as="sourcePoint" />
            <mxPoint x="99.96000000000004" y="160.07999999999993" as="targetPoint" />
          </mxGeometry>
        </mxCell>
        <mxCell id="Wm4q_M4GhdcZWvchF4W8-28" value="Embedded board(?)" style="rounded=0;whiteSpace=wrap;html=1;verticalAlign=top;align=left;" vertex="1" parent="1">
          <mxGeometry x="250" y="110" width="160" height="60" as="geometry" />
        </mxCell>
        <mxCell id="Wm4q_M4GhdcZWvchF4W8-29" value="Serial" style="endArrow=none;html=1;rounded=0;entryX=1;entryY=0.25;entryDx=0;entryDy=0;exitX=0;exitY=0.25;exitDx=0;exitDy=0;fillColor=#dae8fc;strokeColor=#6c8ebf;strokeWidth=3;" edge="1" parent="1" source="Wm4q_M4GhdcZWvchF4W8-28" target="Wm4q_M4GhdcZWvchF4W8-18">
          <mxGeometry width="50" height="50" relative="1" as="geometry">
            <mxPoint x="240" y="70" as="sourcePoint" />
            <mxPoint x="190.00000000000006" y="149.7899999999999" as="targetPoint" />
            <Array as="points">
              <mxPoint x="240" y="125" />
              <mxPoint x="240" y="120" />
              <mxPoint x="100" y="120" />
              <mxPoint x="100" y="125" />
            </Array>
          </mxGeometry>
        </mxCell>
        <mxCell id="Wm4q_M4GhdcZWvchF4W8-30" value="Camera" style="ellipse;whiteSpace=wrap;html=1;aspect=fixed;" vertex="1" parent="1">
          <mxGeometry x="470" y="120" width="40" height="40" as="geometry" />
        </mxCell>
        <mxCell id="Wm4q_M4GhdcZWvchF4W8-31" value="" style="endArrow=none;html=1;rounded=0;exitX=0;exitY=0.5;exitDx=0;exitDy=0;entryX=0.79;entryY=0.353;entryDx=0;entryDy=0;entryPerimeter=0;" edge="1" parent="1" source="Wm4q_M4GhdcZWvchF4W8-30" target="Wm4q_M4GhdcZWvchF4W8-17">
          <mxGeometry width="50" height="50" relative="1" as="geometry">
            <mxPoint x="480" y="50" as="sourcePoint" />
            <mxPoint x="440" y="140" as="targetPoint" />
          </mxGeometry>
        </mxCell>
        <mxCell id="Wm4q_M4GhdcZWvchF4W8-32" value="" style="endArrow=none;html=1;rounded=0;entryX=0;entryY=0.25;entryDx=0;entryDy=0;exitX=1;exitY=0.5;exitDx=0;exitDy=0;strokeWidth=3;fillColor=#d5e8d4;strokeColor=#82b366;" edge="1" parent="1" source="Wm4q_M4GhdcZWvchF4W8-7" target="Wm4q_M4GhdcZWvchF4W8-49">
          <mxGeometry width="50" height="50" relative="1" as="geometry">
            <mxPoint x="210" y="560" as="sourcePoint" />
            <mxPoint x="250" y="559.66" as="targetPoint" />
          </mxGeometry>
        </mxCell>
        <mxCell id="Wm4q_M4GhdcZWvchF4W8-45" value="Socket" style="edgeLabel;html=1;align=center;verticalAlign=middle;resizable=0;points=[];" vertex="1" connectable="0" parent="Wm4q_M4GhdcZWvchF4W8-32">
          <mxGeometry x="-0.0179" y="-1" relative="1" as="geometry">
            <mxPoint as="offset" />
          </mxGeometry>
        </mxCell>
        <mxCell id="Wm4q_M4GhdcZWvchF4W8-33" value="" style="endArrow=none;html=1;rounded=0;exitX=0;exitY=0.5;exitDx=0;exitDy=0;entryX=0;entryY=0.25;entryDx=0;entryDy=0;fillColor=#dae8fc;strokeColor=#6c8ebf;strokeWidth=3;" edge="1" parent="1" source="Wm4q_M4GhdcZWvchF4W8-3" target="Wm4q_M4GhdcZWvchF4W8-2">
          <mxGeometry width="50" height="50" relative="1" as="geometry">
            <mxPoint x="500" y="650" as="sourcePoint" />
            <mxPoint x="480" y="650" as="targetPoint" />
            <Array as="points">
              <mxPoint x="290" y="560" />
              <mxPoint x="290" y="615" />
            </Array>
          </mxGeometry>
        </mxCell>
        <mxCell id="Wm4q_M4GhdcZWvchF4W8-46" value="Serial" style="edgeLabel;html=1;align=center;verticalAlign=middle;resizable=0;points=[];" vertex="1" connectable="0" parent="Wm4q_M4GhdcZWvchF4W8-33">
          <mxGeometry x="0.3128" relative="1" as="geometry">
            <mxPoint x="-53" y="-22" as="offset" />
          </mxGeometry>
        </mxCell>
        <mxCell id="Wm4q_M4GhdcZWvchF4W8-34" value="MFR" style="rounded=0;whiteSpace=wrap;html=1;verticalAlign=top;" vertex="1" parent="1">
          <mxGeometry x="260" y="730" width="280" height="170" as="geometry" />
        </mxCell>
        <mxCell id="Wm4q_M4GhdcZWvchF4W8-36" value="Embedded board(STM)" style="rounded=0;whiteSpace=wrap;html=1;verticalAlign=top;align=left;" vertex="1" parent="1">
          <mxGeometry x="270" y="760" width="160" height="60" as="geometry" />
        </mxCell>
        <mxCell id="Wm4q_M4GhdcZWvchF4W8-37" value="Step&lt;div&gt;Motor&lt;/div&gt;&lt;div&gt;Driver&lt;/div&gt;" style="ellipse;whiteSpace=wrap;html=1;aspect=fixed;fontSize=10;" vertex="1" parent="1">
          <mxGeometry x="450" y="780" width="40" height="40" as="geometry" />
        </mxCell>
        <mxCell id="Wm4q_M4GhdcZWvchF4W8-38" value="" style="endArrow=none;html=1;rounded=0;exitX=0;exitY=0.5;exitDx=0;exitDy=0;" edge="1" parent="1" source="Wm4q_M4GhdcZWvchF4W8-37">
          <mxGeometry width="50" height="50" relative="1" as="geometry">
            <mxPoint x="360" y="830" as="sourcePoint" />
            <mxPoint x="430" y="800" as="targetPoint" />
          </mxGeometry>
        </mxCell>
        <mxCell id="Wm4q_M4GhdcZWvchF4W8-40" value="Step&lt;div&gt;Motor&lt;/div&gt;" style="ellipse;whiteSpace=wrap;html=1;aspect=fixed;" vertex="1" parent="1">
          <mxGeometry x="450" y="840" width="40" height="40" as="geometry" />
        </mxCell>
        <mxCell id="Wm4q_M4GhdcZWvchF4W8-41" value="" style="endArrow=none;html=1;rounded=0;exitX=0.5;exitY=0;exitDx=0;exitDy=0;entryX=0.5;entryY=1;entryDx=0;entryDy=0;" edge="1" parent="1" source="Wm4q_M4GhdcZWvchF4W8-40" target="Wm4q_M4GhdcZWvchF4W8-37">
          <mxGeometry width="50" height="50" relative="1" as="geometry">
            <mxPoint x="500" y="650" as="sourcePoint" />
            <mxPoint x="480" y="650" as="targetPoint" />
          </mxGeometry>
        </mxCell>
        <mxCell id="Wm4q_M4GhdcZWvchF4W8-42" value="Ultra&lt;div&gt;Sonic&lt;/div&gt;" style="ellipse;whiteSpace=wrap;html=1;aspect=fixed;" vertex="1" parent="1">
          <mxGeometry x="270" y="840" width="40" height="40" as="geometry" />
        </mxCell>
        <mxCell id="Wm4q_M4GhdcZWvchF4W8-43" value="" style="endArrow=none;html=1;rounded=0;exitX=0.5;exitY=0;exitDx=0;exitDy=0;entryX=0.127;entryY=1;entryDx=0;entryDy=0;entryPerimeter=0;" edge="1" parent="1" source="Wm4q_M4GhdcZWvchF4W8-42" target="Wm4q_M4GhdcZWvchF4W8-36">
          <mxGeometry width="50" height="50" relative="1" as="geometry">
            <mxPoint x="480" y="850" as="sourcePoint" />
            <mxPoint x="480" y="830" as="targetPoint" />
          </mxGeometry>
        </mxCell>
        <mxCell id="Wm4q_M4GhdcZWvchF4W8-44" value="Socket" style="endArrow=none;html=1;rounded=0;entryX=0;entryY=0.5;entryDx=0;entryDy=0;exitX=0;exitY=0.75;exitDx=0;exitDy=0;strokeWidth=3;fillColor=#d5e8d4;strokeColor=#82b366;" edge="1" parent="1" source="Wm4q_M4GhdcZWvchF4W8-49" target="Wm4q_M4GhdcZWvchF4W8-36">
          <mxGeometry width="50" height="50" relative="1" as="geometry">
            <mxPoint x="148.72" y="730" as="sourcePoint" />
            <mxPoint x="200.0000000000002" y="789.76" as="targetPoint" />
            <Array as="points">
              <mxPoint x="230" y="650" />
              <mxPoint x="230" y="790" />
            </Array>
          </mxGeometry>
        </mxCell>
        <mxCell id="Wm4q_M4GhdcZWvchF4W8-50" value="" style="endArrow=none;html=1;rounded=0;entryX=1;entryY=0.5;entryDx=0;entryDy=0;strokeWidth=3;fillColor=#d5e8d4;strokeColor=#82b366;exitX=0.536;exitY=0.824;exitDx=0;exitDy=0;exitPerimeter=0;" edge="1" parent="1" source="Wm4q_M4GhdcZWvchF4W8-1" target="Wm4q_M4GhdcZWvchF4W8-49">
          <mxGeometry width="50" height="50" relative="1" as="geometry">
            <mxPoint x="390" y="640" as="sourcePoint" />
            <mxPoint x="270" y="790" as="targetPoint" />
            <Array as="points" />
          </mxGeometry>
        </mxCell>
        <mxCell id="Wm4q_M4GhdcZWvchF4W8-51" value="Socket" style="edgeLabel;html=1;align=center;verticalAlign=middle;resizable=0;points=[];" vertex="1" connectable="0" parent="Wm4q_M4GhdcZWvchF4W8-50">
          <mxGeometry x="-0.0845" relative="1" as="geometry">
            <mxPoint x="-8" as="offset" />
          </mxGeometry>
        </mxCell>
        <mxCell id="Wm4q_M4GhdcZWvchF4W8-49" value="modem" style="rounded=0;whiteSpace=wrap;html=1;verticalAlign=top;align=center;" vertex="1" parent="1">
          <mxGeometry x="290" y="620" width="50" height="40" as="geometry" />
        </mxCell>
      </root>
    </mxGraphModel>
  </diagram>
</mxfile>
